<svg width="3597" height="667" viewBox="0 0 3597 667" fill="none" xmlns="http://www.w3.org/2000/svg">
<path d="M566.667 133.333C566.667 133.333 539.477 133.333 533.337 133.333C442.27 133.333 362.903 97.8282 299.997 33.3333C237.093 97.8259 157.733 133.333 66.6697 133.333C60.5297 133.333 33.3363 133.333 33.3363 133.333C33.3363 133.333 33.3333 200 33.3333 238.87C33.3333 428.653 146.647 588.12 300 633.333C453.353 588.12 566.667 428.653 566.667 238.87C566.667 200 566.667 133.333 566.667 133.333Z" stroke="white" stroke-width="66.6667" stroke-linecap="round" stroke-linejoin="round"/>
<path d="M102 218.833H497" stroke="white" stroke-width="30" stroke-linecap="round"/>
<path d="M102 288.333H497" stroke="white" stroke-width="30" stroke-linecap="round"/>
<path d="M111 358.333H487.012" stroke="white" stroke-width="30" stroke-linecap="round"/>
<path d="M141.999 423.333H456.999" stroke="white" stroke-width="30" stroke-linecap="round"/>
<path d="M189 487.333H409" stroke="white" stroke-width="30" stroke-linecap="round"/>
<path d="M825.25 517.333H713.034V153.697H830.222C865.496 153.697 895.681 160.977 920.776 175.536C945.87 189.978 965.106 210.752 978.482 237.859C991.857 264.847 998.545 297.163 998.545 334.805C998.545 372.684 991.798 405.295 978.304 432.639C964.81 459.864 945.16 480.816 919.355 495.494C893.55 510.053 862.182 517.333 825.25 517.333ZM757.068 478.271H822.409C852.475 478.271 877.393 472.471 897.161 460.87C916.928 449.27 931.666 432.757 941.372 411.332C951.079 389.907 955.932 364.398 955.932 334.805C955.932 305.449 951.138 280.177 941.55 258.988C931.962 237.681 917.639 221.346 898.581 209.982C879.523 198.5 855.79 192.759 827.381 192.759H757.068V478.271ZM1177.52 523.015C1152.9 523.015 1131.3 517.156 1112.71 505.437C1094.25 493.718 1079.81 477.324 1069.39 456.254C1059.09 435.184 1053.94 410.562 1053.94 382.39C1053.94 353.981 1059.09 329.182 1069.39 307.994C1079.81 286.805 1094.25 270.352 1112.71 258.633C1131.3 246.914 1152.9 241.055 1177.52 241.055C1202.14 241.055 1223.69 246.914 1242.15 258.633C1260.74 270.352 1275.18 286.805 1285.48 307.994C1295.89 329.182 1301.1 353.981 1301.1 382.39C1301.1 410.562 1295.89 435.184 1285.48 456.254C1275.18 477.324 1260.74 493.718 1242.15 505.437C1223.69 517.156 1202.14 523.015 1177.52 523.015ZM1177.52 485.373C1196.23 485.373 1211.61 480.579 1223.69 470.991C1235.76 461.403 1244.7 448.796 1250.5 433.171C1256.3 417.546 1259.2 400.619 1259.2 382.39C1259.2 364.161 1256.3 347.175 1250.5 331.431C1244.7 315.688 1235.76 302.963 1223.69 293.257C1211.61 283.55 1196.23 278.697 1177.52 278.697C1158.82 278.697 1143.43 283.55 1131.36 293.257C1119.28 302.963 1110.35 315.688 1104.55 331.431C1098.75 347.175 1095.85 364.161 1095.85 382.39C1095.85 400.619 1098.75 417.546 1104.55 433.171C1110.35 448.796 1119.28 461.403 1131.36 470.991C1143.43 480.579 1158.82 485.373 1177.52 485.373ZM1475.86 523.015C1450.29 523.015 1428.28 516.978 1409.81 504.904C1391.35 492.83 1377.14 476.199 1367.2 455.011C1357.25 433.822 1352.28 409.615 1352.28 382.39C1352.28 354.691 1357.37 330.248 1367.55 309.059C1377.85 287.752 1392.17 271.121 1410.52 259.166C1428.99 247.092 1450.53 241.055 1475.15 241.055C1494.33 241.055 1511.61 244.606 1527 251.708C1542.39 258.811 1554.99 268.754 1564.82 281.538C1574.64 294.322 1580.74 309.237 1583.11 326.282H1541.2C1538.01 313.853 1530.91 302.845 1519.9 293.257C1509.01 283.55 1494.33 278.697 1475.86 278.697C1459.53 278.697 1445.2 282.958 1432.89 291.481C1420.7 299.885 1411.17 311.782 1404.31 327.17C1397.56 342.44 1394.19 360.373 1394.19 380.97C1394.19 402.04 1397.5 420.387 1404.13 436.012C1410.88 451.637 1420.35 463.77 1432.54 472.411C1444.85 481.052 1459.29 485.373 1475.86 485.373C1486.75 485.373 1496.64 483.479 1505.51 479.691C1514.39 475.903 1521.91 470.458 1528.06 463.356C1534.22 456.254 1538.6 447.731 1541.2 437.788H1583.11C1580.74 453.886 1574.88 468.387 1565.53 481.289C1556.3 494.073 1544.04 504.253 1528.77 511.829C1513.62 519.286 1495.99 523.015 1475.86 523.015Z" fill="white"/>
<path d="M1848.91 244.606C1846.78 226.614 1838.14 212.646 1822.99 202.703C1807.83 192.759 1789.25 187.788 1767.23 187.788C1751.13 187.788 1737.05 190.392 1724.97 195.6C1713.02 200.809 1703.67 207.97 1696.92 217.085C1690.29 226.199 1686.98 236.557 1686.98 248.157C1686.98 257.864 1689.29 266.209 1693.9 273.193C1698.64 280.058 1704.67 285.799 1712.01 290.416C1719.35 294.914 1727.05 298.642 1735.1 301.602C1743.14 304.443 1750.54 306.751 1757.29 308.526L1794.22 318.47C1803.69 320.955 1814.23 324.388 1825.83 328.768C1837.55 333.148 1848.73 339.125 1859.39 346.701C1870.16 354.159 1879.03 363.747 1886.02 375.465C1893 387.184 1896.49 401.566 1896.49 418.612C1896.49 438.261 1891.35 456.017 1881.05 471.879C1870.87 487.74 1855.95 500.347 1836.3 509.698C1816.77 519.05 1793.04 523.725 1765.1 523.725C1739.06 523.725 1716.51 519.523 1697.45 511.119C1678.51 502.714 1663.6 490.996 1652.71 475.963C1641.94 460.929 1635.84 443.47 1634.42 423.583H1679.88C1681.06 437.314 1685.68 448.678 1693.72 457.674C1701.89 466.552 1712.19 473.181 1724.62 477.561C1737.17 481.822 1750.66 483.953 1765.1 483.953C1781.91 483.953 1797 481.23 1810.38 475.785C1823.76 470.222 1834.35 462.527 1842.16 452.703C1849.97 442.759 1853.88 431.159 1853.88 417.901C1853.88 405.828 1850.51 396.003 1843.76 388.427C1837.01 380.851 1828.14 374.696 1817.13 369.961C1806.12 365.226 1794.22 361.083 1781.44 357.532L1736.69 344.748C1708.28 336.58 1685.79 324.921 1669.22 309.769C1652.65 294.618 1644.36 274.791 1644.36 250.288C1644.36 229.928 1649.87 212.172 1660.88 197.021C1672 181.751 1686.92 169.914 1705.62 161.509C1724.44 152.987 1745.45 148.725 1768.65 148.725C1792.09 148.725 1812.92 152.927 1831.15 161.332C1849.38 169.618 1863.82 180.981 1874.48 195.423C1885.25 209.864 1890.93 226.258 1891.52 244.606H1848.91ZM2005.12 353.271V517.333H1963.21V153.697H2005.12V287.22H2008.67C2015.06 273.133 2024.65 261.947 2037.43 253.661C2050.33 245.257 2067.5 241.055 2088.92 241.055C2107.51 241.055 2123.78 244.784 2137.75 252.241C2151.72 259.58 2162.55 270.884 2170.24 286.154C2178.06 301.306 2181.96 320.6 2181.96 344.038V517.333H2140.06V346.879C2140.06 325.217 2134.44 308.467 2123.19 296.63C2112.06 284.675 2096.62 278.697 2076.85 278.697C2063.12 278.697 2050.81 281.597 2039.92 287.397C2029.14 293.197 2020.62 301.661 2014.35 312.788C2008.19 323.915 2005.12 337.409 2005.12 353.271ZM2258.62 517.333V244.606H2300.53V517.333H2258.62ZM2279.93 199.151C2271.76 199.151 2264.72 196.37 2258.8 190.806C2253 185.243 2250.1 178.555 2250.1 170.742C2250.1 162.93 2253 156.242 2258.8 150.678C2264.72 145.115 2271.76 142.333 2279.93 142.333C2288.1 142.333 2295.08 145.115 2300.88 150.678C2306.8 156.242 2309.76 162.93 2309.76 170.742C2309.76 178.555 2306.8 185.243 2300.88 190.806C2295.08 196.37 2288.1 199.151 2279.93 199.151ZM2491.62 523.015C2465.34 523.015 2442.67 517.215 2423.62 505.615C2404.68 493.896 2390.06 477.561 2379.76 456.609C2369.58 435.539 2364.49 411.036 2364.49 383.1C2364.49 355.165 2369.58 330.543 2379.76 309.237C2390.06 287.811 2404.38 271.121 2422.73 259.166C2441.19 247.092 2462.74 241.055 2487.36 241.055C2501.56 241.055 2515.59 243.422 2529.44 248.157C2543.29 252.892 2555.9 260.586 2567.26 271.24C2578.62 281.775 2587.68 295.742 2594.43 313.143C2601.17 330.543 2604.55 351.969 2604.55 377.418V395.174H2394.32V358.953H2561.93C2561.93 343.564 2558.86 329.833 2552.7 317.759C2546.66 305.686 2538.02 296.157 2526.78 289.173C2515.65 282.189 2502.51 278.697 2487.36 278.697C2470.67 278.697 2456.23 282.84 2444.04 291.126C2431.96 299.293 2422.67 309.947 2416.16 323.086C2409.65 336.225 2406.39 350.311 2406.39 365.345V389.492C2406.39 410.089 2409.94 427.549 2417.05 441.872C2424.27 456.076 2434.27 466.907 2447.05 474.365C2459.84 481.704 2474.69 485.373 2491.62 485.373C2502.63 485.373 2512.57 483.834 2521.45 480.757C2530.45 477.561 2538.2 472.826 2544.71 466.552C2551.22 460.16 2556.25 452.229 2559.8 442.759L2600.29 454.123C2596.02 467.854 2588.86 479.928 2578.8 490.345C2568.74 500.643 2556.31 508.692 2541.51 514.492C2526.72 520.174 2510.09 523.015 2491.62 523.015ZM2710.19 153.697V517.333H2668.29V153.697H2710.19ZM2889.93 523.015C2867.2 523.015 2847.13 517.274 2829.73 505.792C2812.33 494.192 2798.72 477.856 2788.9 456.786C2779.07 435.598 2774.16 410.562 2774.16 381.68C2774.16 353.034 2779.07 328.176 2788.9 307.106C2798.72 286.036 2812.39 269.76 2829.91 258.278C2847.43 246.796 2867.67 241.055 2890.64 241.055C2908.39 241.055 2922.42 244.014 2932.72 249.933C2943.13 255.733 2951.06 262.362 2956.51 269.819C2962.07 277.158 2966.39 283.195 2969.47 287.93H2973.02V153.697H3014.93V517.333H2974.44V475.43H2969.47C2966.39 480.401 2962.01 486.675 2956.33 494.251C2950.65 501.708 2942.54 508.396 2932.01 514.315C2921.47 520.115 2907.44 523.015 2889.93 523.015ZM2895.61 485.373C2912.42 485.373 2926.62 480.993 2938.22 472.234C2949.82 463.356 2958.64 451.105 2964.68 435.48C2970.71 419.736 2973.73 401.566 2973.73 380.97C2973.73 360.61 2970.77 342.795 2964.85 327.525C2958.94 312.137 2950.18 300.181 2938.58 291.659C2926.98 283.017 2912.65 278.697 2895.61 278.697C2877.85 278.697 2863.05 283.254 2851.22 292.369C2839.5 301.365 2830.68 313.616 2824.76 329.123C2818.96 344.511 2816.06 361.793 2816.06 380.97C2816.06 400.382 2819.02 418.02 2824.94 433.882C2830.98 449.625 2839.85 462.172 2851.57 471.524C2863.41 480.757 2878.09 485.373 2895.61 485.373Z" fill="#616CD1"/>
</svg>
